<svg width="124" height="22" viewBox="0 0 124 22" fill="none" xmlns="http://www.w3.org/2000/svg">
<path fill-rule="evenodd" clip-rule="evenodd" d="M30.3819 6.55814C29.9682 6.67425 29.5818 6.87032 29.2448 7.13508C28.9246 7.39256 28.6702 7.72139 28.5022 8.09482C28.3185 8.51491 28.2282 8.96934 28.2374 9.42717V9.68242C28.2371 9.74765 28.2441 9.81272 28.2583 9.87641H29.9827V9.63136C29.9828 9.41939 30.0107 9.20834 30.0657 9.00351C30.1195 8.79922 30.2151 8.60807 30.3464 8.44196C30.4867 8.26835 30.6664 8.13013 30.8709 8.0386C31.1314 7.92818 31.4133 7.8759 31.6964 7.88545C31.9962 7.876 32.2952 7.92094 32.5787 8.01805C32.7842 8.08862 32.9672 8.21167 33.1094 8.37479C33.2516 8.5379 33.348 8.73533 33.3888 8.94716C33.4392 9.1855 33.4635 9.42855 33.4614 9.67207V11.0909C32.7076 11.0872 31.9545 11.1366 31.2079 11.239C30.5812 11.3173 29.9732 11.5039 29.4114 11.7903C28.9185 12.0473 28.5083 12.4365 28.2275 12.9134C27.9435 13.3933 27.8016 14.0109 27.8016 14.7665C27.795 15.1556 27.8421 15.5437 27.9419 15.9201C28.0212 16.2155 28.1476 16.4964 28.3162 16.7523C28.4615 16.9695 28.6443 17.1596 28.8562 17.3138C29.0504 17.4549 29.2636 17.5684 29.4896 17.6508C29.6998 17.727 29.9173 17.7817 30.1387 17.8141C30.3381 17.8436 30.5394 17.8589 30.7411 17.86C31.2927 17.8689 31.8375 17.7389 32.3247 17.4822C32.7902 17.2322 33.1821 16.8662 33.4618 16.4204H33.5656C33.6621 16.8063 33.8804 17.1516 34.1887 17.4057C34.5128 17.6607 34.9178 17.7928 35.3311 17.7783C35.5726 17.7833 35.8136 17.7559 36.0476 17.6966C36.1987 17.6586 36.345 17.6038 36.4838 17.5333V16.3387H35.8087C35.6536 16.3376 35.5049 16.2773 35.3934 16.1703C35.2686 16.058 35.2062 15.8724 35.2062 15.6134V9.44759C35.2062 8.47432 34.9258 7.71709 34.365 7.17592C33.8042 6.63474 32.9596 6.36415 31.8312 6.36415C31.3412 6.35923 30.853 6.42456 30.3819 6.55814V6.55814ZM33.461 13.6235C33.4696 14.0312 33.3991 14.4368 33.2534 14.8181C33.1312 15.133 32.9477 15.4209 32.7133 15.6655C32.5031 15.8824 32.2504 16.0544 31.9707 16.171C31.7095 16.2808 31.4289 16.338 31.1452 16.3394C30.6535 16.3394 30.2797 16.2168 30.0236 15.9718C29.7676 15.7268 29.6395 15.2911 29.6394 14.6649C29.6224 14.2974 29.7204 13.9336 29.9202 13.6235C30.119 13.3483 30.3902 13.1327 30.7043 13.0003C31.0876 12.8385 31.494 12.7369 31.9089 12.6992C32.4246 12.6456 32.9428 12.62 33.4614 12.6225V13.6231L33.461 13.6235ZM39.723 16.3394C39.9541 16.8081 40.3119 17.2039 40.7564 17.4829C41.1793 17.7408 41.667 17.8752 42.1634 17.8709C42.663 17.8787 43.1569 17.7649 43.6018 17.5394C44.0514 17.2958 44.4277 16.9382 44.6922 16.503C45.0267 15.9483 45.2619 15.3403 45.3873 14.706C45.5628 13.8459 45.6446 12.9697 45.6313 12.0923C45.6451 11.2242 45.558 10.3574 45.3717 9.50911C45.2361 8.88013 44.9957 8.278 44.6604 7.72752C44.3994 7.29988 44.0331 6.94504 43.5959 6.69631C43.1952 6.47724 42.7449 6.36315 42.2874 6.36481C41.7832 6.35633 41.2849 6.47398 40.8387 6.70692C40.4318 6.91552 40.1052 7.25095 39.9093 7.66162H39.8054V2.49401H38.0614V17.6156H39.3803L39.6087 16.3394H39.723V16.3394ZM43.8043 12.5106C43.8118 13.0984 43.77 13.6858 43.6796 14.2667C43.6194 14.6788 43.4931 15.0787 43.3053 15.4511C43.1646 15.7303 42.9467 15.964 42.677 16.125C42.4086 16.2718 42.1059 16.3458 41.7994 16.3394C41.1278 16.3394 40.6277 16.0195 40.2989 15.3796C39.9702 14.7398 39.8057 13.7835 39.8055 12.5106V11.8061C39.8055 9.19923 40.4702 7.89575 41.7994 7.89566C42.1059 7.88926 42.4086 7.96322 42.677 8.11007C42.9467 8.27098 43.1646 8.50471 43.3053 8.78393C43.493 9.15636 43.6194 9.55622 43.6796 9.9683C43.7698 10.5458 43.8115 11.1298 43.8043 11.7142V12.5106V12.5106ZM54.3551 6.6194H47.3772V8.15091H51.9568L47.0345 16.7988V17.6156H54.6257V16.0943H49.423L54.3556 7.40558V6.6194H54.3551ZM58.696 15.349H56.5672V17.6156H58.696V15.349V15.349ZM63.3535 6.55774C62.9399 6.67385 62.5535 6.86992 62.2165 7.13468C61.8963 7.39216 61.6418 7.72099 61.4739 8.09442C61.2902 8.51451 61.1999 8.96894 61.2091 9.42677V9.68202C61.2087 9.74725 61.2157 9.81232 61.23 9.87601H62.9537V9.63097C62.9538 9.41899 62.9818 9.20793 63.0369 9.00312C63.0907 8.79884 63.1862 8.6077 63.3176 8.44156C63.4579 8.26798 63.6377 8.12976 63.8421 8.0382C64.1027 7.92779 64.3845 7.8755 64.6677 7.88505C64.9675 7.8756 65.2665 7.92054 65.55 8.01765C65.7554 8.0882 65.9385 8.21124 66.0807 8.37436C66.2229 8.53749 66.3192 8.73492 66.3599 8.94676C66.4105 9.18509 66.4348 9.42814 66.4326 9.67168V11.0905C65.6789 11.0867 64.9258 11.1362 64.1791 11.2386C63.5524 11.3169 62.9444 11.5035 62.3827 11.7899C61.8898 12.0469 61.4796 12.4361 61.1988 12.913C60.9148 13.3929 60.7728 14.0105 60.7729 14.7661C60.7662 15.1552 60.8134 15.5433 60.9131 15.9197C60.9925 16.2151 61.1189 16.496 61.2874 16.7519C61.4327 16.9691 61.6155 17.1592 61.8274 17.3134C62.0216 17.4545 62.2349 17.5679 62.4609 17.6504C62.6711 17.7266 62.8886 17.7813 63.11 17.8137C63.3094 17.8432 63.5107 17.8585 63.7123 17.8596C64.2639 17.8685 64.8088 17.7385 65.296 17.4818C65.7615 17.2318 66.1533 16.8658 66.433 16.42H66.5369C66.6333 16.8059 66.8517 17.1512 67.16 17.4053C67.484 17.6603 67.889 17.7924 68.3024 17.7779C68.5438 17.783 68.7849 17.7555 69.0189 17.6962C69.17 17.6582 69.3163 17.6034 69.4551 17.5329V16.3383H68.78C68.6249 16.3373 68.4761 16.2769 68.3647 16.1699C68.2399 16.0576 68.1775 15.872 68.1775 15.613V9.44759C68.1775 8.47432 67.8972 7.71709 67.3364 7.17592C66.7757 6.63474 65.9311 6.36415 64.8026 6.36415C64.3127 6.35925 63.8246 6.42459 63.3535 6.55814V6.55774ZM66.4326 13.6231C66.4413 14.0308 66.3708 14.4364 66.225 14.8177C66.1029 15.1326 65.9193 15.4205 65.685 15.6651C65.4748 15.882 65.2221 16.054 64.9424 16.1706C64.6812 16.2804 64.4006 16.3376 64.1168 16.339C63.6252 16.339 63.2513 16.2164 62.9953 15.9714C62.7393 15.7264 62.6112 15.2907 62.6111 14.6645C62.5941 14.297 62.6921 13.9332 62.8918 13.6231C63.0906 13.3479 63.3619 13.1323 63.676 12.9999C64.0593 12.8381 64.4657 12.7365 64.8805 12.6988C65.3962 12.6452 65.9145 12.6196 66.433 12.6221V13.6227L66.4326 13.6231ZM77.4925 4.83185C77.465 5.00798 77.425 5.18198 77.373 5.35256C77.3176 5.53039 77.2391 5.70031 77.1394 5.85802C77.0268 6.03529 76.8905 6.1967 76.7344 6.3379C76.5466 6.50594 76.3371 6.64841 76.1113 6.76155C75.8672 6.63578 75.6094 6.53817 75.3428 6.47063C75.0682 6.39944 74.7855 6.36338 74.5016 6.36335C73.9797 6.35565 73.4607 6.44214 72.9699 6.61861C72.5358 6.77644 72.1421 7.02746 71.8171 7.35373C71.4947 7.68554 71.2485 8.0826 71.0953 8.51768C70.9221 9.01656 70.8378 9.54152 70.8461 10.0691C70.8344 10.634 70.9515 11.1942 71.1887 11.7079C71.4118 12.1742 71.7385 12.5843 72.1442 12.9075C71.7043 13.0531 71.3092 13.3079 70.9966 13.6478C70.711 13.9664 70.5571 14.3802 70.5656 14.8065C70.5646 15.1362 70.6467 15.4609 70.8045 15.751C70.9606 16.0438 71.1939 16.2891 71.4796 16.4606C71.2584 16.542 71.0542 16.6631 70.8772 16.8179C70.6977 16.9738 70.5436 17.1564 70.4203 17.359C70.2922 17.571 70.1943 17.7995 70.1295 18.0381C70.0599 18.2892 70.025 18.5485 70.0257 18.8089C70.0231 19.1552 70.0829 19.4993 70.2022 19.8248C70.3162 20.1356 70.4949 20.4191 70.7266 20.6569C70.9717 20.9036 71.2674 21.0952 71.5938 21.2184C71.9787 21.3613 72.3875 21.4306 72.7984 21.4226H75.9658C76.4446 21.4311 76.9206 21.3479 77.3678 21.1776C77.7529 21.0294 78.103 20.8037 78.3959 20.5146C78.6743 20.2329 78.8886 19.8952 79.0241 19.5242C79.168 19.1317 79.2402 18.7167 79.2371 18.299C79.239 17.9623 79.1773 17.6281 79.0554 17.3138C78.9376 17.0094 78.7592 16.7316 78.5309 16.497C78.2951 16.2572 78.0125 16.0677 77.7002 15.9401C77.3543 15.8001 76.9834 15.7307 76.6098 15.7359H73.4112C73.2775 15.7369 73.145 15.7108 73.0218 15.6594C72.9017 15.6091 72.7924 15.5363 72.6999 15.445C72.6068 15.3538 72.5312 15.2465 72.4767 15.1285C72.4209 15.0084 72.3925 14.8777 72.3935 14.7455C72.3925 14.6159 72.4183 14.4875 72.4692 14.3681C72.5201 14.2487 72.595 14.1409 72.6895 14.0513C72.7831 13.9628 72.8922 13.8919 73.0114 13.842C73.1381 13.7899 73.2741 13.7638 73.4112 13.7654H74.5848C75.0872 13.7657 75.5853 13.674 76.0541 13.4949C76.4779 13.3317 76.862 13.0811 77.1809 12.7598C77.5017 12.4286 77.7477 12.0336 77.9027 11.6008C78.0783 11.1093 78.1643 10.5907 78.1567 10.0693C78.1657 9.56684 78.0757 9.06743 77.8919 8.59909C77.7227 8.18164 77.4741 7.80036 77.1598 7.47598C77.4402 7.40585 77.7057 7.28659 77.9438 7.12381C78.1749 6.96473 78.3753 6.76588 78.5357 6.53666C78.7017 6.29855 78.8263 6.03457 78.9044 5.75566C78.989 5.45488 79.031 5.14386 79.029 4.83158H77.4922L77.4925 4.83185ZM76.1528 17.3706C76.3528 17.3657 76.552 17.3987 76.7396 17.4676C76.8945 17.5272 77.0345 17.6195 77.1497 17.7381C77.2609 17.8545 77.3443 17.994 77.3938 18.1465C77.4465 18.3081 77.4728 18.477 77.4716 18.6468C77.4727 18.8185 77.4391 18.9886 77.373 19.1471C77.3081 19.3021 77.2126 19.4427 77.0923 19.5607C76.9711 19.6796 76.8284 19.7748 76.6717 19.8414C76.5075 19.9104 76.3307 19.9452 76.1524 19.9435H73.0686C72.8749 19.9474 72.6825 19.9127 72.5026 19.8414C72.3482 19.779 72.2097 19.6831 72.0976 19.5607C71.9894 19.4402 71.9064 19.2997 71.8535 19.1471C71.7974 18.9863 71.7693 18.8171 71.7705 18.6468C71.7693 18.477 71.7956 18.3081 71.8483 18.1465C71.8973 17.9949 71.9788 17.8556 72.0871 17.7381C72.1999 17.6188 72.3383 17.5264 72.4922 17.4676C72.6763 17.3992 72.872 17.3662 73.0686 17.3706H76.1528ZM75.9036 8.37049C76.229 8.76192 76.3917 9.32856 76.3917 10.0704C76.3917 10.7716 76.229 11.3246 75.9036 11.7296C75.5782 12.1346 75.104 12.337 74.4809 12.337C73.8578 12.337 73.387 12.143 73.0686 11.7551C72.7502 11.3671 72.5909 10.8057 72.5908 10.0711C72.5908 9.36325 72.7501 8.8051 73.0686 8.39661C73.3871 7.98812 73.8579 7.78392 74.4809 7.78401C75.1039 7.78357 75.5781 7.97906 75.9036 8.37049V8.37049ZM81.4024 7.76293C80.6995 8.69562 80.3481 10.1454 80.3482 12.1121C80.3331 12.9927 80.4237 13.8718 80.6182 14.7311C80.761 15.3748 81.0349 15.9829 81.4231 16.5178C81.7626 16.9711 82.2201 17.324 82.7465 17.5388C83.3287 17.7634 83.9497 17.8727 84.5743 17.8604C85.0861 17.8669 85.5942 17.7732 86.0696 17.5847C86.5092 17.4081 86.9044 17.138 87.2275 16.7935C87.5611 16.4304 87.8157 16.0028 87.9752 15.5377C88.1589 15.0003 88.2485 14.4357 88.2401 13.8683H86.5156C86.5202 14.217 86.4729 14.5644 86.3754 14.8995C86.2941 15.182 86.1603 15.4469 85.9808 15.6806C85.8211 15.8889 85.6143 16.057 85.3771 16.1713C85.1399 16.2857 84.8789 16.3432 84.6152 16.3391C83.7913 16.3391 83.1803 16.0396 82.7823 15.4406C82.3843 14.8416 82.1818 13.9023 82.1748 12.6226H88.2395V11.5302C88.2526 10.7377 88.1742 9.94641 88.0059 9.17165C87.8847 8.59731 87.65 8.05248 87.3153 7.56867C87.0238 7.16407 86.6247 6.84774 86.1626 6.65494C85.6511 6.45207 85.1037 6.3531 84.5529 6.36388C83.1551 6.36406 82.105 6.83041 81.4024 7.76293V7.76293ZM85.9404 8.69721C86.2554 9.2383 86.4129 10.0364 86.413 11.0914H82.1968C82.2286 10.6215 82.3015 10.1552 82.4149 9.6978C82.5002 9.34154 82.6478 9.00288 82.851 8.69721C83.0274 8.43759 83.269 8.22815 83.552 8.08965C83.8661 7.9464 84.2091 7.87654 84.5546 7.88545C84.8393 7.8774 85.1204 7.94935 85.3657 8.09298C85.6109 8.23661 85.8102 8.44607 85.9406 8.69721H85.9404ZM93.2773 6.71646C92.7812 6.98302 92.3764 7.38995 92.1143 7.88545H91.9896L91.7508 6.6194H90.4321V17.6156H92.1766V10.9076C92.1704 10.4762 92.2281 10.0462 92.3479 9.63136C92.4453 9.29162 92.5998 8.97061 92.8048 8.68183C92.978 8.43866 93.2032 8.23644 93.4643 8.08965C93.7052 7.95573 93.9768 7.88542 94.253 7.88545C94.4707 7.88307 94.6876 7.91233 94.8967 7.9723C95.0875 8.02837 95.2597 8.13414 95.3952 8.2786C95.5469 8.4489 95.6571 8.65152 95.7172 8.87078C95.8009 9.17848 95.8394 9.49655 95.8314 9.81515V17.6156H97.5762V9.69263C97.5878 9.16866 97.5213 8.64587 97.3787 8.14123C97.2705 7.76186 97.081 7.41012 96.8232 7.11002C96.5892 6.84791 96.2903 6.65084 95.9561 6.53825C95.5876 6.41805 95.2016 6.3594 94.8137 6.36468C94.2806 6.35829 93.7537 6.47893 93.2773 6.71646V6.71646ZM100.552 7.76293C99.9322 8.69562 99.6224 10.1454 99.6225 12.1121C99.6106 12.9719 99.6872 13.8305 99.8509 14.6749C99.9687 15.3097 100.204 15.9174 100.546 16.4668C100.836 16.9206 101.248 17.2849 101.735 17.5184C102.272 17.7579 102.855 17.8747 103.443 17.8604C103.991 17.8762 104.534 17.7551 105.022 17.5082C105.449 17.2816 105.814 16.9558 106.086 16.5587C106.369 16.1395 106.571 15.6722 106.683 15.1803C106.81 14.6398 106.873 14.0864 106.871 13.5313H105.146C105.15 13.9347 105.121 14.3376 105.058 14.7361C105.013 15.0432 104.914 15.3403 104.767 15.6142C104.645 15.8398 104.461 16.0272 104.238 16.1553C103.993 16.2841 103.719 16.3475 103.443 16.3391C102.737 16.3391 102.228 16.0192 101.916 15.3794C101.605 14.7395 101.449 13.7866 101.449 12.5205V11.714C101.449 10.441 101.608 9.48467 101.926 8.84493C102.245 8.20518 102.75 7.88527 103.443 7.88518C103.713 7.8757 103.981 7.93548 104.221 8.05875C104.435 8.1807 104.608 8.36162 104.72 8.57947C104.858 8.85335 104.947 9.14862 104.985 9.45249C105.041 9.86359 105.067 10.2781 105.063 10.6929H106.869C106.878 10.0683 106.813 9.44475 106.677 8.83472C106.571 8.34549 106.364 7.88324 106.07 7.47678C105.795 7.11114 105.428 6.82408 105.005 6.64473C104.509 6.44573 103.977 6.35013 103.443 6.36388C102.135 6.36406 101.171 6.83041 100.551 7.76293H100.552ZM116.114 6.6194H114.338L112.25 15.1455H112.168L109.696 6.6194H107.785L111.212 17.6156C111.129 18.0203 111.001 18.4143 110.828 18.7898C110.699 19.069 110.523 19.3246 110.308 19.5456C110.133 19.7241 109.92 19.8618 109.685 19.949C109.465 20.0268 109.233 20.0665 109 20.0663H108.387V21.2507C108.573 21.32 108.766 21.3663 108.964 21.3886C109.186 21.4133 109.41 21.4252 109.633 21.4242C110.092 21.433 110.544 21.3127 110.937 21.0771C111.328 20.8323 111.667 20.5131 111.934 20.1378C112.24 19.707 112.493 19.2407 112.687 18.7492C112.909 18.1953 113.099 17.6295 113.258 17.0543L116.114 6.6194Z" fill="#171717"/>
<path fill-rule="evenodd" clip-rule="evenodd" d="M9.95608 15.0732L11.1592 13.2607L11.1644 13.2687L18.8258 1.71462H3.50312L7.09126 7.12595L5.89606 8.92637L0 0H22.3023L11.1511 16.8825L9.95608 15.0732ZM12.3463 6.92679L11.1433 8.73927L11.138 8.73145L3.47665 20.2854H18.7992L15.211 14.8742L16.4064 13.0736L22.3023 22H0L11.1513 5.11749L12.3463 6.92679Z" fill="#171717"/>
<path d="M120.935 1.87148C121.26 1.87148 121.516 1.95023 121.702 2.10775C121.888 2.26527 121.981 2.47675 121.981 2.7422C121.981 3.02515 121.888 3.24247 121.702 3.39415C121.516 3.54292 121.262 3.6173 120.939 3.6173L120.878 3.65231H120.26V4.75931H119.667V1.87148H120.935ZM120.865 3.19288C121.034 3.19288 121.159 3.15933 121.24 3.09224C121.324 3.02223 121.366 2.91576 121.366 2.77283C121.366 2.6299 121.324 2.52488 121.24 2.45779C121.159 2.38778 121.034 2.35278 120.865 2.35278H120.26V3.19288H120.865ZM121.218 3.31977L122.151 4.75931H121.475L120.704 3.49479L121.218 3.31977Z" fill="#171717"/>
<path fill-rule="evenodd" clip-rule="evenodd" d="M120.699 6.00922C122.226 6.00922 123.465 4.7827 123.465 3.26972C123.465 1.75674 122.226 0.530225 120.699 0.530225C119.172 0.530225 117.933 1.75674 117.933 3.26972C117.933 4.7827 119.172 6.00922 120.699 6.00922ZM120.699 6.53944C122.522 6.53944 124 5.07554 124 3.26972C124 1.4639 122.522 0 120.699 0C118.876 0 117.398 1.4639 117.398 3.26972C117.398 5.07554 118.876 6.53944 120.699 6.53944Z" fill="#171717"/>
</svg>
